<svg viewBox="0 0 200 200" xmlns="http://www.w3.org/2000/svg">
  <defs>
    <clipPath id="clip-az"><circle cx="100" cy="100" r="100" /></clipPath>
  </defs>
  <g clip-path="url(#clip-az)">
    <rect width="200" height="200" fill="#EDE6FB" />
    <path d="M32 216c6-40 32-62 68-62s62 22 68 62Z" fill="#2E2440" />
    <ellipse cx="100" cy="98" rx="44" ry="48" fill="#2E2440" />
    <ellipse cx="100" cy="104" rx="37" ry="41" fill="#F6C9A0" />
    <path d="M60 132c-10 18-14 40-14 40h108s-4-22-14-40c-8 20-70 20-80 0Z" fill="#2E2440" />
    <path d="M63 88c0-24 17-40 37-40s37 16 37 40c0-28-15-46-37-46s-37 18-37 46Z" fill="#2E2440" />
    <ellipse cx="84" cy="106" rx="4" ry="5" fill="#3A2E5C" />
    <ellipse cx="116" cy="106" rx="4" ry="5" fill="#3A2E5C" />
    <path d="M90 124c4 4 16 4 20 0" stroke="#B5734A" stroke-width="3" fill="none" stroke-linecap="round" />
    <ellipse cx="74" cy="116" rx="5" ry="4" fill="#F3AF8C" opacity="0.6" />
    <ellipse cx="126" cy="116" rx="5" ry="4" fill="#F3AF8C" opacity="0.6" />
  </g>
</svg>
